<svg width="26" height="26" viewBox="0 0 26 26" fill="none" xmlns="http://www.w3.org/2000/svg">
<path d="M12.8646 23.8333L17.7666 10.8333H19.9875L25.025 23.8333H22.6687L21.5583 20.4208H16.3583L15.0854 23.8333H12.8646ZM16.9541 18.525H20.8L18.9041 13.2708H18.85L16.9541 18.525ZM4.33331 20.5833L2.84373 19.0937L8.36873 13.5687C7.68262 12.7743 7.07324 11.9753 6.5406 11.1718C6.00797 10.3684 5.54304 9.53329 5.14581 8.66663H7.50206C7.80901 9.26246 8.14755 9.82669 8.51769 10.3593C8.88783 10.892 9.30762 11.4382 9.77706 11.9979C10.5896 11.1493 11.2666 10.2691 11.8083 9.35725C12.35 8.44545 12.8104 7.49301 13.1896 6.49996H1.08331V4.33329H8.66665V2.16663H10.8333V4.33329H18.4166V6.49996H15.3562C14.959 7.74579 14.4309 8.96906 13.7719 10.1698C13.1128 11.3704 12.3048 12.5125 11.3479 13.5958L14.0021 16.277L13.1896 18.4708L9.74998 15.1666L4.33331 20.5833Z" fill="url(#paint0_linear_11_11)"/>
<defs>
<linearGradient id="paint0_linear_11_11" x1="13.0541" y1="2.16663" x2="13.0541" y2="23.8333" gradientUnits="userSpaceOnUse">
<stop stop-color="#50BDFA"/>
<stop offset="1" stop-color="#0980C4"/>
</linearGradient>
</defs>
</svg>
