<svg width="24" height="29" viewBox="0 0 24 29" fill="none" xmlns="http://www.w3.org/2000/svg">
<path d="M14 11.6605V10.2105C14.55 9.92851 15.1125 9.71705 15.6875 9.57608C16.2625 9.43511 16.8667 9.36462 17.5 9.36462C17.9333 9.36462 18.3583 9.4049 18.775 9.48546C19.1917 9.56601 19.6 9.66671 20 9.78754V11.1167C19.6 10.9355 19.1958 10.7995 18.7875 10.7089C18.3792 10.6183 17.95 10.573 17.5 10.573C16.8667 10.573 16.2583 10.6686 15.675 10.8599C15.0917 11.0513 14.5333 11.3181 14 11.6605ZM14 18.3063V16.8261C14.55 16.5542 15.1125 16.3503 15.6875 16.2144C16.2625 16.0784 16.8667 16.0105 17.5 16.0105C17.9333 16.0105 18.3583 16.0507 18.775 16.1313C19.1917 16.2118 19.6 16.3125 20 16.4334V17.7625C19.6 17.5813 19.1958 17.4454 18.7875 17.3547C18.3792 17.2641 17.95 17.2188 17.5 17.2188C16.8667 17.2188 16.2583 17.3094 15.675 17.4907C15.0917 17.6719 14.5333 17.9438 14 18.3063ZM14 14.9834V13.5334C14.55 13.2514 15.1125 13.04 15.6875 12.899C16.2625 12.758 16.8667 12.6875 17.5 12.6875C17.9333 12.6875 18.3583 12.7278 18.775 12.8084C19.1917 12.8889 19.6 12.9896 20 13.1105V14.4396C19.6 14.2584 19.1958 14.1224 18.7875 14.0318C18.3792 13.9412 17.95 13.8959 17.5 13.8959C16.8667 13.8959 16.2583 13.9915 15.675 14.1829C15.0917 14.3742 14.5333 14.641 14 14.9834ZM6.2 19.9375C7.09277 19.9375 7.96179 20.0634 8.80707 20.3151C9.65236 20.5669 10.4833 20.9445 11.3 21.448V8.549C10.55 7.94483 9.73651 7.4766 8.85953 7.14431C7.98256 6.81202 7.09605 6.64587 6.2 6.64587C5.56667 6.64587 4.94583 6.74153 4.3375 6.93285C3.72917 7.12417 3.11667 7.3608 2.5 7.64275V20.7532C3.01667 20.4712 3.60417 20.2648 4.2625 20.1339C4.92083 20.003 5.56667 19.9375 6.2 19.9375ZM12.8 21.448C13.6333 20.9445 14.45 20.5669 15.25 20.3151C16.05 20.0634 16.9 19.9375 17.8 19.9375C18.4333 19.9375 19.0875 19.998 19.7625 20.1188C20.4375 20.2396 21.0167 20.4007 21.5 20.6021V7.64275C20.9333 7.30039 20.3348 7.04865 19.7044 6.88754C19.0741 6.72643 18.4393 6.64587 17.8 6.64587C16.9 6.64587 16.0292 6.81202 15.1875 7.14431C14.3458 7.4766 13.55 7.94483 12.8 8.549V21.448ZM12.05 24.1667C11.2 23.4014 10.275 22.8124 9.275 22.3995C8.275 21.9867 7.25 21.7802 6.2 21.7802C5.59105 21.7802 4.99298 21.8709 4.4058 22.0521C3.8186 22.2334 3.23333 22.4549 2.65 22.7167C2.265 22.9382 1.89375 22.908 1.53625 22.6261C1.17875 22.3441 1 21.9414 1 21.4177V7.43129C1 7.12921 1.05833 6.8523 1.175 6.60056C1.29167 6.34883 1.46667 6.15247 1.7 6.0115C2.4 5.60872 3.12829 5.31167 3.88488 5.12035C4.64144 4.92903 5.41315 4.83337 6.2 4.83337C7.25 4.83337 8.27083 5.00455 9.2625 5.34692C10.2542 5.68928 11.1833 6.21289 12.05 6.91775C12.9 6.21289 13.8125 5.68928 14.7875 5.34692C15.7625 5.00455 16.7667 4.83337 17.8 4.83337C18.5811 4.83337 19.3473 4.92903 20.0984 5.12035C20.8495 5.31167 21.575 5.60872 22.275 6.0115C22.5083 6.15247 22.6875 6.34883 22.8125 6.60056C22.9375 6.8523 23 7.12921 23 7.43129V21.4177C23 21.9795 22.8125 22.4069 22.4375 22.7C22.0625 22.9931 21.6917 22.9987 21.325 22.7167C20.7583 22.4348 20.1814 22.2082 19.5942 22.037C19.007 21.8658 18.409 21.7802 17.8 21.7802C16.75 21.7802 15.7417 21.9917 14.775 22.4146C13.8083 22.8375 12.9 23.4216 12.05 24.1667Z" fill="url(#paint0_linear_11_9)"/>
<defs>
<linearGradient id="paint0_linear_11_9" x1="12" y1="4.83337" x2="12" y2="24.1667" gradientUnits="userSpaceOnUse">
<stop stop-color="#50BDFA"/>
<stop offset="1" stop-color="#0980C4"/>
</linearGradient>
</defs>
</svg>
