<svg width="125" height="36" viewBox="0 0 125 36" fill="none" xmlns="http://www.w3.org/2000/svg">
<path d="M41.9119 1.016V1.976C40.8879 2.008 40.1199 2.136 39.6079 2.36C39.0959 2.552 38.7439 2.936 38.5519 3.512C38.3919 4.056 38.3119 4.92 38.3119 6.104V29.912C38.3119 31.064 38.3919 31.928 38.5519 32.504C38.7439 33.08 39.0959 33.464 39.6079 33.656C40.1199 33.848 40.8879 33.976 41.9119 34.04V35C41.0159 34.936 39.8799 34.904 38.5039 34.904C37.1599 34.872 35.7839 34.856 34.3759 34.856C32.8399 34.856 31.3999 34.872 30.0559 34.904C28.7119 34.904 27.6239 34.936 26.7919 35V34.04C27.8799 33.976 28.6959 33.848 29.2399 33.656C29.8159 33.464 30.1999 33.08 30.3919 32.504C30.5839 31.928 30.6799 31.064 30.6799 29.912V3.944H31.0159L19.1119 35.048H18.3439L5.38393 4.136V27.128C5.38393 28.888 5.47993 30.248 5.67193 31.208C5.86393 32.136 6.27993 32.808 6.91993 33.224C7.59193 33.608 8.63193 33.88 10.0399 34.04V35C9.43193 34.936 8.63193 34.904 7.63993 34.904C6.64793 34.872 5.71993 34.856 4.85593 34.856C4.11993 34.856 3.36793 34.872 2.59993 34.904C1.83193 34.904 1.19193 34.936 0.679932 35V34.04C1.70393 33.88 2.47193 33.608 2.98393 33.224C3.49593 32.84 3.83193 32.216 3.99193 31.352C4.18393 30.456 4.27993 29.24 4.27993 27.704V6.104C4.27993 4.92 4.18393 4.056 3.99193 3.512C3.83193 2.936 3.47993 2.552 2.93593 2.36C2.42393 2.136 1.67193 2.008 0.679932 1.976V1.016C1.19193 1.048 1.83193 1.08 2.59993 1.112C3.36793 1.144 4.11993 1.16 4.85593 1.16C6.23193 1.16 7.57593 1.144 8.88793 1.112C10.2319 1.08 11.4159 1.048 12.4399 1.016L22.5199 25.352L21.3199 26.456L30.9679 1.16C31.5119 1.16 32.0719 1.16 32.6479 1.16C33.2239 1.16 33.7999 1.16 34.3759 1.16C35.7839 1.16 37.1599 1.144 38.5039 1.112C39.8799 1.08 41.0159 1.048 41.9119 1.016Z" fill="#0B0C12"/>
<path d="M56.3194 1.016C57.1514 1.048 58.2394 1.08 59.5834 1.112C60.9274 1.144 62.2714 1.16 63.6154 1.16C65.1514 1.16 66.6394 1.144 68.0794 1.112C69.5194 1.08 70.5434 1.064 71.1514 1.064C75.1194 1.064 78.0794 1.768 80.0314 3.176C82.0154 4.584 83.0074 6.392 83.0074 8.6C83.0074 9.72 82.6714 10.856 81.9994 12.008C81.3274 13.16 80.2874 14.184 78.8794 15.08C77.4714 15.976 75.6474 16.632 73.4074 17.048V17.144C76.4154 17.368 78.7994 17.912 80.5594 18.776C82.3194 19.64 83.5834 20.68 84.3514 21.896C85.1194 23.112 85.5034 24.376 85.5034 25.688C85.5034 27.704 84.9754 29.4 83.9194 30.776C82.8634 32.152 81.3434 33.208 79.3594 33.944C77.3754 34.648 75.0074 35 72.2554 35C71.4874 35 70.3834 34.984 68.9434 34.952C67.5034 34.888 65.7594 34.856 63.7114 34.856C62.3034 34.856 60.9274 34.872 59.5834 34.904C58.2394 34.904 57.1514 34.936 56.3194 35V34.04C57.3434 33.976 58.1114 33.848 58.6234 33.656C59.1354 33.464 59.4714 33.08 59.6314 32.504C59.8234 31.928 59.9194 31.064 59.9194 29.912V6.104C59.9194 4.92 59.8234 4.056 59.6314 3.512C59.4714 2.936 59.1194 2.552 58.5754 2.36C58.0634 2.136 57.3114 2.008 56.3194 1.976V1.016ZM70.5274 1.976C69.2794 1.976 68.4634 2.248 68.0794 2.792C67.7274 3.336 67.5514 4.44 67.5514 6.104V29.912C67.5514 31.032 67.6314 31.88 67.7914 32.456C67.9834 33.032 68.3034 33.416 68.7514 33.608C69.2314 33.8 69.9354 33.896 70.8634 33.896C73.1674 33.896 74.8474 33.176 75.9034 31.736C76.9914 30.264 77.5354 28.184 77.5354 25.496C77.5354 23.032 76.9114 21.128 75.6634 19.784C74.4474 18.44 72.4154 17.768 69.5674 17.768H65.4874C65.4874 17.768 65.4874 17.64 65.4874 17.384C65.4874 17.096 65.4874 16.952 65.4874 16.952H69.6154C71.1194 16.952 72.2714 16.6 73.0714 15.896C73.8714 15.16 74.4314 14.2 74.7514 13.016C75.0714 11.8 75.2314 10.504 75.2314 9.128C75.2314 6.76 74.8634 4.984 74.1274 3.8C73.3914 2.584 72.1914 1.976 70.5274 1.976Z" fill="#0B0C12"/>
<path d="M111.773 0.391998C113.661 0.391998 115.117 0.599998 116.141 1.016C117.165 1.4 118.045 1.816 118.781 2.264C119.165 2.488 119.469 2.664 119.693 2.792C119.949 2.888 120.189 2.936 120.413 2.936C120.733 2.936 120.957 2.76 121.085 2.408C121.245 2.056 121.373 1.528 121.469 0.823998H122.573C122.541 1.432 122.493 2.168 122.429 3.032C122.397 3.864 122.365 4.968 122.333 6.344C122.333 7.72 122.333 9.528 122.333 11.768H121.229C121.101 10.104 120.717 8.488 120.077 6.92C119.437 5.352 118.525 4.072 117.341 3.08C116.189 2.056 114.765 1.544 113.069 1.544C111.533 1.544 110.269 1.976 109.277 2.84C108.285 3.704 107.789 4.904 107.789 6.44C107.789 7.72 108.109 8.824 108.749 9.752C109.389 10.648 110.317 11.528 111.533 12.392C112.781 13.256 114.285 14.296 116.045 15.512C117.581 16.504 118.957 17.496 120.173 18.488C121.389 19.48 122.365 20.6 123.101 21.848C123.837 23.096 124.205 24.584 124.205 26.312C124.205 28.424 123.645 30.168 122.525 31.544C121.437 32.92 119.997 33.96 118.205 34.664C116.413 35.336 114.445 35.672 112.301 35.672C110.317 35.672 108.733 35.48 107.549 35.096C106.365 34.712 105.373 34.312 104.573 33.896C103.869 33.448 103.325 33.224 102.941 33.224C102.621 33.224 102.381 33.4 102.221 33.752C102.093 34.104 101.981 34.632 101.885 35.336H100.781C100.845 34.568 100.877 33.672 100.877 32.648C100.909 31.624 100.925 30.296 100.925 28.664C100.957 27 100.973 24.904 100.973 22.376H102.077C102.205 24.488 102.557 26.472 103.133 28.328C103.741 30.152 104.653 31.624 105.869 32.744C107.117 33.864 108.765 34.424 110.813 34.424C111.933 34.424 112.925 34.232 113.789 33.848C114.685 33.432 115.405 32.824 115.949 32.024C116.493 31.224 116.765 30.232 116.765 29.048C116.765 27.704 116.445 26.536 115.805 25.544C115.197 24.552 114.349 23.624 113.261 22.76C112.205 21.896 110.973 21.016 109.565 20.12C108.061 19.128 106.653 18.136 105.341 17.144C104.029 16.152 102.973 15.016 102.173 13.736C101.405 12.456 101.021 10.936 101.021 9.176C101.021 7.16 101.517 5.512 102.509 4.232C103.533 2.92 104.861 1.96 106.493 1.352C108.157 0.711998 109.917 0.391998 111.773 0.391998Z" fill="#0B0C12"/>
</svg>
